<svg width="216" height="40" xmlns="http://www.w3.org/2000/svg"><g fill="none" fill-rule="evenodd"><path d="M6 2h37v37H6z"/><g fill-rule="nonzero"><path d="M23.728 3.596c.482-.044.965-.061 1.449-.053 8.836.325 15.932 7.402 16.28 16.238v13.33a4.377 4.377 0 0 1-4.388 4.346 4.863 4.863 0 0 1-4.09-4.335v-13.33a8.457 8.457 0 0 0-9.25-7.76" fill="#FBBC04"/><path d="M41.457 33.217a4.229 4.229 0 1 1-8.458 0 4.229 4.229 0 0 1 8.458 0z" fill="#4285F4"/><path d="M23.971 37.309a4.345 4.345 0 0 0 4.398-4.314 4.229 4.229 0 0 0-4.45-4.101 8.457 8.457 0 0 1-7.792-9.007v-.074a8.51 8.51 0 0 1 7.844-7.791 4.229 4.229 0 0 0 4.398-4.123 4.355 4.355 0 0 0-4.398-4.313h-.296c-8.99.416-16.08 7.798-16.132 16.798v.063c0 10.572 9.272 16.862 16.175 16.862h.253z" fill="#EA4335"/></g><g fill="#5F6368" fill-rule="nonzero"><path d="M69.224 28.572a9.316 9.316 0 0 1-9.326-9.197 9.316 9.316 0 0 1 9.326-9.197 8.763 8.763 0 0 1 6.306 2.536l-1.727 1.766a6.414 6.414 0 0 0-4.53-1.786 6.592 6.592 0 0 0-6.592 6.681 6.592 6.592 0 0 0 6.592 6.68 6.197 6.197 0 0 0 4.648-1.835 5.27 5.27 0 0 0 1.362-3.167h-6.06v-2.507h8.458a8.21 8.21 0 0 1 .138 1.57 8.3 8.3 0 0 1-2.18 5.87 8.398 8.398 0 0 1-6.415 2.586zM90.895 22.651a5.842 5.842 0 1 1-11.675 0 5.842 5.842 0 1 1 11.675 0zm-2.556 0a3.296 3.296 0 1 0-6.563 0 3.296 3.296 0 1 0 6.563 0zM103.98 22.651a5.842 5.842 0 1 1-11.674 0 5.842 5.842 0 1 1 11.674 0zm-2.556 0a3.296 3.296 0 1 0-6.562 0 3.296 3.296 0 1 0 6.562 0zM116.73 17.086v10.667c0 4.382-2.575 6.168-5.625 6.168a5.645 5.645 0 0 1-5.25-3.493l2.26-.987a3.276 3.276 0 0 0 2.96 2.112c1.974 0 3.159-1.214 3.159-3.474v-.859h-.09a4.036 4.036 0 0 1-3.118 1.352 5.921 5.921 0 0 1 0-11.842 4.086 4.086 0 0 1 3.119 1.323h.118v-.987l2.467.02zm-2.29 5.585a3.336 3.336 0 0 0-3.137-3.612 3.424 3.424 0 0 0-3.296 3.612 3.395 3.395 0 0 0 3.296 3.563 3.306 3.306 0 0 0 3.138-3.563zM121.29 10.81v17.397h-2.606V10.81zM131.523 24.605l1.974 1.342a5.921 5.921 0 0 1-4.935 2.625 5.724 5.724 0 0 1-5.792-5.92c0-3.524 2.447-5.922 5.506-5.922a5.487 5.487 0 0 1 5.063 3.77l.266.671-7.894 3.276a3.02 3.02 0 0 0 2.871 1.787 3.395 3.395 0 0 0 2.941-1.629zm-6.217-2.131l5.29-2.201a2.28 2.28 0 0 0-2.191-1.253 3.247 3.247 0 0 0-3.1 3.454z"/></g><g fill="#5F6368"><path d="M140.264 28.5l5.94-15.752h2.288l5.94 15.752h-2.244l-1.518-4.268h-6.622l-1.54 4.268h-2.244zm4.466-6.16h5.236l-2.574-7.106h-.088l-2.574 7.106zm15.278 6.512c-1.393 0-2.596-.55-3.608-1.65-1.012-1.1-1.518-2.464-1.518-4.092 0-1.628.506-2.992 1.518-4.092 1.012-1.1 2.215-1.65 3.608-1.65.821 0 1.558.176 2.211.528.653.352 1.14.792 1.463 1.32h.088l-.088-1.496v-4.972h2.024V28.5h-1.936v-1.496h-.088c-.323.528-.81.968-1.463 1.32-.653.352-1.39.528-2.211.528zm.33-1.848c.953 0 1.764-.352 2.431-1.056.667-.704 1.001-1.65 1.001-2.838 0-1.188-.334-2.134-1.001-2.838-.667-.704-1.478-1.056-2.431-1.056-.939 0-1.745.356-2.42 1.067-.675.711-1.012 1.654-1.012 2.827s.337 2.116 1.012 2.827c.675.711 1.481 1.067 2.42 1.067zm8.084 1.496V12.748h2.024l5.478 9.592h.088l5.478-9.592h2.024V28.5h-2.024v-9.35l.088-2.64h-.088l-4.928 8.646h-1.188l-4.928-8.646h-.088l.088 2.64v9.35h-2.024zm18.754-9.482c1.041-1.1 2.369-1.65 3.982-1.65s2.94.546 3.982 1.639c1.041 1.093 1.562 2.46 1.562 4.103 0 1.643-.52 3.01-1.562 4.103-1.041 1.093-2.369 1.639-3.982 1.639s-2.94-.546-3.982-1.639c-1.041-1.093-1.562-2.46-1.562-4.103 0-1.643.52-3.007 1.562-4.092zm1.496 6.93c.704.704 1.533 1.056 2.486 1.056.953 0 1.778-.356 2.475-1.067.697-.711 1.045-1.654 1.045-2.827s-.348-2.116-1.045-2.827c-.697-.711-1.522-1.067-2.475-1.067-.953 0-1.778.356-2.475 1.067-.697.711-1.045 1.654-1.045 2.827s.345 2.12 1.034 2.838zm15.476 2.904c-.821 0-1.558-.176-2.211-.528-.653-.352-1.14-.792-1.463-1.32h-.088V28.5h-1.936V12.748h2.024v4.972l-.088 1.496h.088c.323-.528.81-.968 1.463-1.32.653-.352 1.39-.528 2.211-.528 1.393 0 2.596.55 3.608 1.65 1.012 1.1 1.518 2.464 1.518 4.092 0 1.628-.506 2.992-1.518 4.092-1.012 1.1-2.215 1.65-3.608 1.65zm-.33-1.848c.939 0 1.745-.356 2.42-1.067.675-.711 1.012-1.654 1.012-2.827s-.337-2.116-1.012-2.827c-.675-.711-1.481-1.067-2.42-1.067-.953 0-1.764.352-2.431 1.056-.667.704-1.001 1.65-1.001 2.838 0 1.188.334 2.134 1.001 2.838.667.704 1.478 1.056 2.431 1.056z"/></g></g></svg>
